<svg width="34" height="35" viewBox="0 0 34 35" fill="none" xmlns="http://www.w3.org/2000/svg">
<path d="M22.3125 17.5C22.3125 18.9504 21.7528 20.3414 20.7565 21.367C19.7602 22.3926 18.409 22.9688 17 22.9688C15.591 22.9688 14.2398 22.3926 13.2435 21.367C12.2472 20.3414 11.6875 18.9504 11.6875 17.5C11.6875 17.1883 11.7194 16.8839 11.7743 16.5885H9.91667V23.8747C9.91667 24.3815 10.3151 24.7917 10.8074 24.7917H23.1944C23.4303 24.7912 23.6564 24.6944 23.8231 24.5225C23.9897 24.3506 24.0833 24.1176 24.0833 23.8747V16.5885H22.2257C22.2806 16.8839 22.3125 17.1883 22.3125 17.5ZM17 21.1458C17.4652 21.1457 17.9259 21.0513 18.3556 20.8679C18.7854 20.6845 19.1758 20.4158 19.5047 20.0771C19.8336 19.7384 20.0944 19.3363 20.2723 18.8938C20.4503 18.4513 20.5418 17.9771 20.5417 17.4982C20.5415 17.0193 20.4498 16.5451 20.2717 16.1027C20.0935 15.6603 19.8325 15.2584 19.5035 14.9198C19.1744 14.5813 18.7838 14.3127 18.354 14.1296C17.9241 13.9464 17.4634 13.8522 16.9982 13.8523C16.0587 13.8526 15.1577 14.237 14.4935 14.9211C13.8293 15.6052 13.4563 16.5328 13.4566 17.5C13.4568 18.4672 13.8303 19.3946 14.4948 20.0784C15.1593 20.7621 16.0605 21.1461 17 21.1458ZM21.25 13.6719H23.3732C23.5143 13.6719 23.6496 13.6143 23.7495 13.5118C23.8494 13.4093 23.9058 13.2702 23.9062 13.125V10.9393C23.9062 10.7938 23.8501 10.6542 23.7501 10.5513C23.6502 10.4484 23.5146 10.3906 23.3732 10.3906H21.25C21.1086 10.3906 20.9731 10.4484 20.8731 10.5513C20.7731 10.6542 20.717 10.7938 20.717 10.9393V13.125C20.7188 13.4258 20.9578 13.6719 21.25 13.6719ZM17 0C12.4913 0 8.1673 1.84374 4.97918 5.12563C1.79107 8.40752 0 12.8587 0 17.5C0 22.1413 1.79107 26.5925 4.97918 29.8744C8.1673 33.1563 12.4913 35 17 35C19.2325 35 21.4431 34.5474 23.5056 33.6679C25.5682 32.7884 27.4422 31.4994 29.0208 29.8744C30.5994 28.2493 31.8516 26.3202 32.706 24.197C33.5603 22.0738 34 19.7981 34 17.5C34 15.2019 33.5603 12.9262 32.706 10.803C31.8516 8.67984 30.5994 6.75066 29.0208 5.12563C27.4422 3.50061 25.5682 2.21157 23.5056 1.33211C21.4431 0.452651 19.2325 0 17 0ZM25.8542 24.5893C25.8542 25.7031 24.9688 26.6146 23.8868 26.6146H10.1132C9.03125 26.6146 8.14583 25.7031 8.14583 24.5893V10.4107C8.14583 9.29688 9.03125 8.38542 10.1132 8.38542H23.8868C24.9688 8.38542 25.8542 9.29688 25.8542 10.4107V24.5893Z" fill="#ED1639"/>
</svg>
