<svg width="36" height="35" viewBox="0 0 36 35" fill="none" xmlns="http://www.w3.org/2000/svg">
<path d="M21.0056 17.1956L16.7944 15.2852C16.4269 15.1193 16.125 15.3052 16.125 15.7008V19.2992C16.125 19.6948 16.4269 19.8807 16.7944 19.7148L21.0037 17.8044C21.3731 17.6367 21.3731 17.3633 21.0056 17.1956ZM18 0C8.05875 0 0 7.8349 0 17.5C0 27.1651 8.05875 35 18 35C27.9412 35 36 27.1651 36 17.5C36 7.8349 27.9412 0 18 0ZM18 24.6094C8.78625 24.6094 8.625 23.8018 8.625 17.5C8.625 11.1982 8.78625 10.3906 18 10.3906C27.2137 10.3906 27.375 11.1982 27.375 17.5C27.375 23.8018 27.2137 24.6094 18 24.6094Z" fill="#ED1639"/>
</svg>
